HIERARCHY
ROOT Hips
{
	OFFSET -354.814270 -588.171936 88.516190
	CHANNELS 6 Xposition Yposition Zposition Zrotation Yrotation Xrotation
	JOINT Spine
	{
		OFFSET 0.000000 2.080078 8.814247
		CHANNELS 6 Xposition Yposition Zposition Zrotation Yrotation Xrotation
		JOINT Spine1
		{
			OFFSET 0.000000 0.000000 8.844139
			CHANNELS 6 Xposition Yposition Zposition Zrotation Yrotation Xrotation
			JOINT Spine2
			{
				OFFSET 0.000000 0.000000 11.682266
				CHANNELS 6 Xposition Yposition Zposition Zrotation Yrotation Xrotation
				JOINT Spine3
				{
					OFFSET 0.000000 0.000000 11.746704
					CHANNELS 6 Xposition Yposition Zposition Zrotation Yrotation Xrotation
					JOINT Neck
					{
						OFFSET 0.000000 0.000000 17.658264
						CHANNELS 6 Xposition Yposition Zposition Zrotation Yrotation Xrotation
						JOINT Neck1
						{
							OFFSET 0.000000 0.000000 5.101517
							CHANNELS 6 Xposition Yposition Zposition Zrotation Yrotation Xrotation
							JOINT Head
							{
								OFFSET 0.000000 0.000000 5.101517
								CHANNELS 6 Xposition Yposition Zposition Zrotation Yrotation Xrotation
								JOINT HeadEnd
								{
									OFFSET 0.000000 0.000000 11.655090
									CHANNELS 6 Xposition Yposition Zposition Zrotation Yrotation Xrotation
									End Site
									{
										OFFSET 0.000000 0.000000 0.100006
									}
								}
							}
						}
					}
					JOINT RightShoulder
					{
						OFFSET -2.625397 0.000000 11.175217
						CHANNELS 6 Xposition Yposition Zposition Zrotation Yrotation Xrotation
						JOINT RightArm
						{
							OFFSET 0.000000 0.000000 10.434723
							CHANNELS 6 Xposition Yposition Zposition Zrotation Yrotation Xrotation
							JOINT RightForeArm
							{
								OFFSET 0.000000 0.000000 29.628418
								CHANNELS 6 Xposition Yposition Zposition Zrotation Yrotation Xrotation
								JOINT RightHand
								{
									OFFSET 0.000000 0.000000 22.857605
									CHANNELS 6 Xposition Yposition Zposition Zrotation Yrotation Xrotation
									JOINT RightHandThumb1
									{
										OFFSET -2.867310 -2.944275 3.959564
										CHANNELS 6 Xposition Yposition Zposition Zrotation Yrotation Xrotation
										JOINT RightHandThumb2
										{
											OFFSET 0.000000 0.000000 3.350403
											CHANNELS 6 Xposition Yposition Zposition Zrotation Yrotation Xrotation
											JOINT RightHandThumb3
											{
												OFFSET 0.000000 0.000000 3.756516
												CHANNELS 6 Xposition Yposition Zposition Zrotation Yrotation Xrotation
												JOINT RightHandThumb4
												{
													OFFSET 0.000000 0.000000 3.147339
													CHANNELS 6 Xposition Yposition Zposition Zrotation Yrotation Xrotation
													End Site
													{
														OFFSET 0.000000 0.000000 0.100006
													}
												}
											}
										}
									}
									JOINT RightHandIndex1
									{
										OFFSET -0.086761 -2.345276 10.030899
										CHANNELS 6 Xposition Yposition Zposition Zrotation Yrotation Xrotation
										JOINT RightHandIndex2
										{
											OFFSET 0.000000 0.000000 4.061096
											CHANNELS 6 Xposition Yposition Zposition Zrotation Yrotation Xrotation
											JOINT RightHandIndex3
											{
												OFFSET 0.000000 0.000000 3.248871
												CHANNELS 6 Xposition Yposition Zposition Zrotation Yrotation Xrotation
												JOINT RightHandIndex4
												{
													OFFSET 0.000000 0.000000 2.639709
													CHANNELS 6 Xposition Yposition Zposition Zrotation Yrotation Xrotation
													End Site
													{
														OFFSET 0.000000 0.000000 0.100006
													}
												}
											}
										}
									}
									JOINT RightHandMiddle1
									{
										OFFSET 0.104095 -0.006775 9.502945
										CHANNELS 6 Xposition Yposition Zposition Zrotation Yrotation Xrotation
										JOINT RightHandMiddle2
										{
											OFFSET 0.000000 0.000000 4.568726
											CHANNELS 6 Xposition Yposition Zposition Zrotation Yrotation Xrotation
											JOINT RightHandMiddle3
											{
												OFFSET 0.000000 0.000000 3.654984
												CHANNELS 6 Xposition Yposition Zposition Zrotation Yrotation Xrotation
												JOINT RightHandMiddle4
												{
													OFFSET 0.000000 0.000000 2.741241
													CHANNELS 6 Xposition Yposition Zposition Zrotation Yrotation Xrotation
													End Site
													{
														OFFSET 0.000000 0.000000 0.100006
													}
												}
											}
										}
									}
									JOINT RightHandRing1
									{
										OFFSET 0.086761 2.267456 8.921707
										CHANNELS 6 Xposition Yposition Zposition Zrotation Yrotation Xrotation
										JOINT RightHandRing2
										{
											OFFSET 0.000000 0.000000 4.061096
											CHANNELS 6 Xposition Yposition Zposition Zrotation Yrotation Xrotation
											JOINT RightHandRing3
											{
												OFFSET 0.000000 0.000000 3.654984
												CHANNELS 6 Xposition Yposition Zposition Zrotation Yrotation Xrotation
												JOINT RightHandRing4
												{
													OFFSET 0.000000 0.000000 2.741241
													CHANNELS 6 Xposition Yposition Zposition Zrotation Yrotation Xrotation
													End Site
													{
														OFFSET 0.000000 0.000000 0.100006
													}
												}
											}
										}
									}
									JOINT RightHandPinky1
									{
										OFFSET -0.173492 4.467224 7.976990
										CHANNELS 6 Xposition Yposition Zposition Zrotation Yrotation Xrotation
										JOINT RightHandPinky2
										{
											OFFSET 0.000000 0.000000 3.350403
											CHANNELS 6 Xposition Yposition Zposition Zrotation Yrotation Xrotation
											JOINT RightHandPinky3
											{
												OFFSET 0.000000 0.000000 2.842758
												CHANNELS 6 Xposition Yposition Zposition Zrotation Yrotation Xrotation
												JOINT RightHandPinky4
												{
													OFFSET 0.000000 0.000000 2.639709
													CHANNELS 6 Xposition Yposition Zposition Zrotation Yrotation Xrotation
													End Site
													{
														OFFSET 0.000000 0.000000 0.100006
													}
												}
											}
										}
									}
									JOINT RightForeArmEnd
									{
										OFFSET 0.000000 0.000000 0.000000
										CHANNELS 6 Xposition Yposition Zposition Zrotation Yrotation Xrotation
										End Site
										{
											OFFSET 0.000000 0.000000 0.100006
										}
									}
								}
								JOINT RightArmEnd
								{
									OFFSET 0.000000 0.000000 0.000000
									CHANNELS 6 Xposition Yposition Zposition Zrotation Yrotation Xrotation
									End Site
									{
										OFFSET 0.000000 0.000000 0.100006
									}
								}
							}
						}
					}
					JOINT LeftShoulder
					{
						OFFSET 2.625397 0.000000 11.175217
						CHANNELS 6 Xposition Yposition Zposition Zrotation Yrotation Xrotation
						JOINT LeftArm
						{
							OFFSET 0.000000 0.000000 10.813629
							CHANNELS 6 Xposition Yposition Zposition Zrotation Yrotation Xrotation
							JOINT LeftForeArm
							{
								OFFSET 0.000000 0.000000 28.724777
								CHANNELS 6 Xposition Yposition Zposition Zrotation Yrotation Xrotation
								JOINT LeftHand
								{
									OFFSET 0.644379 0.328857 25.716171
									CHANNELS 6 Xposition Yposition Zposition Zrotation Yrotation Xrotation
									JOINT LeftHandThumb1
									{
										OFFSET 2.867310 -2.944275 3.959564
										CHANNELS 6 Xposition Yposition Zposition Zrotation Yrotation Xrotation
										JOINT LeftHandThumb2
										{
											OFFSET 0.000000 0.000000 3.350403
											CHANNELS 6 Xposition Yposition Zposition Zrotation Yrotation Xrotation
											JOINT LeftHandThumb3
											{
												OFFSET 0.000000 0.000000 3.756516
												CHANNELS 6 Xposition Yposition Zposition Zrotation Yrotation Xrotation
												JOINT LeftHandThumb4
												{
													OFFSET 0.000000 0.000000 3.100006
													CHANNELS 6 Xposition Yposition Zposition Zrotation Yrotation Xrotation
													End Site
													{
														OFFSET 0.000000 0.000000 0.100006
													}
												}
											}
										}
									}
									JOINT LeftHandIndex1
									{
										OFFSET 0.086761 -2.345276 10.030899
										CHANNELS 6 Xposition Yposition Zposition Zrotation Yrotation Xrotation
										JOINT LeftHandIndex2
										{
											OFFSET 0.000000 0.000000 4.061096
											CHANNELS 6 Xposition Yposition Zposition Zrotation Yrotation Xrotation
											JOINT LeftHandIndex3
											{
												OFFSET 0.000000 0.000000 3.248871
												CHANNELS 6 Xposition Yposition Zposition Zrotation Yrotation Xrotation
												JOINT LeftHandIndex4
												{
													OFFSET 0.000000 0.000000 2.639709
													CHANNELS 6 Xposition Yposition Zposition Zrotation Yrotation Xrotation
													End Site
													{
														OFFSET 0.000000 0.000000 0.100006
													}
												}
											}
										}
									}
									JOINT LeftHandMiddle1
									{
										OFFSET -0.104095 -0.006775 9.502945
										CHANNELS 6 Xposition Yposition Zposition Zrotation Yrotation Xrotation
										JOINT LeftHandMiddle2
										{
											OFFSET 0.000000 0.000000 4.568726
											CHANNELS 6 Xposition Yposition Zposition Zrotation Yrotation Xrotation
											JOINT LeftHandMiddle3
											{
												OFFSET 0.000000 0.000000 3.654984
												CHANNELS 6 Xposition Yposition Zposition Zrotation Yrotation Xrotation
												JOINT LeftHandMiddle4
												{
													OFFSET 0.000000 0.000000 2.741241
													CHANNELS 6 Xposition Yposition Zposition Zrotation Yrotation Xrotation
													End Site
													{
														OFFSET 0.000000 0.000000 0.100006
													}
												}
											}
										}
									}
									JOINT LeftHandRing1
									{
										OFFSET -0.086761 2.267456 8.921707
										CHANNELS 6 Xposition Yposition Zposition Zrotation Yrotation Xrotation
										JOINT LeftHandRing2
										{
											OFFSET 0.000000 0.000000 4.061096
											CHANNELS 6 Xposition Yposition Zposition Zrotation Yrotation Xrotation
											JOINT LeftHandRing3
											{
												OFFSET 0.000000 0.000000 3.654984
												CHANNELS 6 Xposition Yposition Zposition Zrotation Yrotation Xrotation
												JOINT LeftHandRing4
												{
													OFFSET 0.000000 0.000000 2.741241
													CHANNELS 6 Xposition Yposition Zposition Zrotation Yrotation Xrotation
													End Site
													{
														OFFSET 0.000000 0.000000 0.100006
													}
												}
											}
										}
									}
									JOINT LeftHandPinky1
									{
										OFFSET 0.173492 4.467224 7.976990
										CHANNELS 6 Xposition Yposition Zposition Zrotation Yrotation Xrotation
										JOINT LeftHandPinky2
										{
											OFFSET 0.000000 0.000000 3.350403
											CHANNELS 6 Xposition Yposition Zposition Zrotation Yrotation Xrotation
											JOINT LeftHandPinky3
											{
												OFFSET 0.000000 0.000000 2.842758
												CHANNELS 6 Xposition Yposition Zposition Zrotation Yrotation Xrotation
												JOINT LeftHandPinky4
												{
													OFFSET 0.000000 0.000000 2.639709
													CHANNELS 6 Xposition Yposition Zposition Zrotation Yrotation Xrotation
													End Site
													{
														OFFSET 0.000000 0.000000 0.100006
													}
												}
											}
										}
									}
									JOINT LeftForeArmEnd
									{
										OFFSET 0.000000 0.000000 0.000000
										CHANNELS 6 Xposition Yposition Zposition Zrotation Yrotation Xrotation
										End Site
										{
											OFFSET 0.000000 0.000000 0.100006
										}
									}
								}
								JOINT LeftArmEnd
								{
									OFFSET 0.000000 0.000000 0.000000
									CHANNELS 6 Xposition Yposition Zposition Zrotation Yrotation Xrotation
									End Site
									{
										OFFSET 0.000000 0.000000 0.100006
									}
								}
							}
						}
					}
				}
			}
		}
	}
	JOINT RightUpLeg
	{
		OFFSET -11.289948 0.000000 0.000000
		CHANNELS 6 Xposition Yposition Zposition Zrotation Yrotation Xrotation
		JOINT RightLeg
		{
			OFFSET 0.000000 0.000000 -38.200325
			CHANNELS 6 Xposition Yposition Zposition Zrotation Yrotation Xrotation
			JOINT RightFoot
			{
				OFFSET 0.000000 0.000000 -39.900856
				CHANNELS 6 Xposition Yposition Zposition Zrotation Yrotation Xrotation
				JOINT RightToeBase
				{
					OFFSET 0.000000 -15.261658 0.000001
					CHANNELS 6 Xposition Yposition Zposition Zrotation Yrotation Xrotation
					JOINT RightToeBaseEnd
					{
						OFFSET 0.000000 -7.370728 0.000000
						CHANNELS 6 Xposition Yposition Zposition Zrotation Yrotation Xrotation
						End Site
						{
							OFFSET 0.000000 0.000000 0.100000
						}
					}
				}
				JOINT RightLegEnd
				{
					OFFSET 0.000000 0.000000 0.000000
					CHANNELS 6 Xposition Yposition Zposition Zrotation Yrotation Xrotation
					End Site
					{
						OFFSET 0.000000 0.000000 0.100000
					}
				}
			}
			JOINT RightUpLegEnd
			{
				OFFSET 0.000000 0.000000 0.000000
				CHANNELS 6 Xposition Yposition Zposition Zrotation Yrotation Xrotation
				End Site
				{
					OFFSET 0.000000 0.000000 0.099998
				}
			}
		}
	}
	JOINT LeftUpLeg
	{
		OFFSET 11.315674 0.000000 0.000000
		CHANNELS 6 Xposition Yposition Zposition Zrotation Yrotation Xrotation
		JOINT LeftLeg
		{
			OFFSET 0.000000 0.000000 -38.200325
			CHANNELS 6 Xposition Yposition Zposition Zrotation Yrotation Xrotation
			JOINT LeftFoot
			{
				OFFSET 0.000000 0.000000 -39.900856
				CHANNELS 6 Xposition Yposition Zposition Zrotation Yrotation Xrotation
				JOINT LeftToeBase
				{
					OFFSET 0.000000 -15.261658 0.000001
					CHANNELS 6 Xposition Yposition Zposition Zrotation Yrotation Xrotation
					JOINT LeftToeBaseEnd
					{
						OFFSET 0.000000 -7.539978 0.000000
						CHANNELS 6 Xposition Yposition Zposition Zrotation Yrotation Xrotation
						End Site
						{
							OFFSET 0.000000 0.000000 0.100000
						}
					}
				}
				JOINT LeftLegEnd
				{
					OFFSET 0.000000 0.000000 0.000000
					CHANNELS 6 Xposition Yposition Zposition Zrotation Yrotation Xrotation
					End Site
					{
						OFFSET 0.000000 0.000000 0.100000
					}
				}
			}
			JOINT LeftUpLegEnd
			{
				OFFSET 0.000000 0.000000 0.000000
				CHANNELS 6 Xposition Yposition Zposition Zrotation Yrotation Xrotation
				End Site
				{
					OFFSET 0.000000 0.000000 0.099998
				}
			}
		}
	}
}
MOTION
Frames: 2
Frame Time: 0.016667
1.058899 -4.341553 85.721893 1.693228 -0.743768 -22.375712 -0.000028 2.080054 8.814253 -0.378675 -2.481564 11.144961 0.000004 0.000019 8.844133 -0.025886 -0.887660 4.403015 -0.000042 -0.000041 11.682274 2.446611 4.035849 15.466709 -0.000025 -0.000098 11.746708 0.922395 5.044086 7.805102 -0.000042 -0.000059 17.658272 6.570897 21.008588 11.064354 -0.000032 -0.000072 5.101543 0.814350 1.909264 -0.757373 -0.000021 -0.000034 5.101596 -1.981153 2.023677 -20.790466 -0.000045 -0.000063 11.655122 0.000000 0.000004 0.000001 -2.625418 -0.000106 11.175136 13.985457 -92.010441 1.443795 -0.000029 -0.000042 10.434654 -53.434916 -40.290415 63.592292 -0.000049 -0.000095 29.628450 12.979280 0.261146 18.699371 -0.000015 -0.000015 22.857613 21.813217 -5.845640 -7.407289 -2.867264 -2.944366 3.959534 33.329650 -11.338760 61.629459 -0.000017 -0.000079 3.350413 -0.000006 -0.000002 -0.000001 -0.000030 -0.000031 3.756530 0.000009 -0.000000 -0.000005 -0.000037 -0.000064 3.147347 0.000001 -0.000000 0.000001 -0.086796 -2.345265 10.030865 -11.738665 -15.867096 2.548095 -0.000024 -0.000071 4.061125 0.314099 -11.311106 1.590255 -0.000067 -0.000082 3.248892 -0.192469 -11.310690 1.616321 -0.000018 -0.000007 2.639712 0.000000 0.000002 -0.000001 0.104092 -0.006784 9.502943 -6.277502 -14.699467 0.387606 -0.000019 -0.000087 4.568760 0.411459 -10.433447 0.565270 0.000007 -0.000050 3.654990 0.000765 -10.433033 0.545164 -0.000044 -0.000006 2.741249 0.000001 -0.000002 -0.000000 0.086750 2.267428 8.921707 1.880893 -15.453038 -0.162131 -0.000017 -0.000085 4.061119 -0.992617 -10.938496 -0.667983 -0.000005 -0.000060 3.655014 0.113441 -10.938361 -0.685197 -0.000009 -0.000009 2.741256 0.000000 0.000001 -0.000002 -0.173504 4.467236 7.976971 10.695945 -15.191514 -2.675523 -0.000019 -0.000085 3.350424 -1.804842 -10.742909 -2.112709 -0.000028 -0.000050 2.842760 0.193944 -10.743213 -2.112183 -0.000028 0.000008 2.639701 -0.000001 0.000001 -0.000001 -0.000018 -0.000049 -0.000027 -0.000001 0.000001 0.000001 -0.000037 -0.000048 0.000023 -0.000002 0.000001 -0.000000 2.625412 -0.000082 11.175256 -10.729556 92.277850 -0.717631 0.000004 -0.000099 10.813614 36.818695 47.358401 39.158864 -0.000006 -0.000053 28.724718 -6.612659 0.937180 38.067059 0.644363 0.328869 25.716167 -27.416513 2.437472 -16.518430 2.867355 -2.944305 3.959572 -33.320340 11.315909 61.564402 -0.000012 -0.000031 3.350404 0.011026 -0.011021 -0.042048 -0.000003 -0.000088 3.756536 0.011032 -0.011026 -0.012991 -0.000042 -0.000015 3.100016 0.000002 0.000002 0.000003 0.086750 -2.345291 10.030891 -6.123313 14.298299 -3.668178 0.000014 0.000017 4.061127 0.388073 10.335560 -1.464939 -0.000001 -0.000000 3.248882 -0.112667 10.335425 -1.465062 -0.000013 -0.000001 2.639726 0.000000 -0.000003 -0.000000 -0.104113 -0.006780 9.502941 -1.137419 13.524211 -2.990176 0.000009 -0.000060 4.568734 0.444080 9.713985 -0.510384 -0.000019 -0.000087 3.654989 -0.066617 9.713942 -0.501626 -0.000035 -0.000004 2.741237 0.000001 -0.000001 -0.000000 -0.086773 2.267469 8.921694 7.395563 15.217619 -0.437209 -0.000041 0.000027 4.061101 -0.938878 10.741793 0.658439 -0.000020 -0.000023 3.654975 0.051391 10.741849 0.646705 0.000013 -0.000005 2.741249 0.000001 0.000002 0.000000 0.173473 4.467201 7.977022 16.336154 15.600729 2.113548 0.000000 0.000027 3.350441 -1.793173 10.935482 2.151965 -0.000033 0.000003 2.842783 0.200119 10.931803 2.150998 -0.000003 -0.000059 2.639713 0.000000 -0.000001 -0.000001 -0.000003 0.000007 0.000002 -0.000000 0.000000 -0.000000 -0.000024 -0.000001 -0.000011 0.000001 0.000000 -0.000000 -11.289948 0.000027 0.000008 -3.763985 8.915674 17.305322 0.000001 0.000147 -38.200279 -1.020050 0.515919 26.719237 -0.000001 0.000065 -39.900848 -10.661457 -7.799716 6.264764 -0.000001 -15.261604 -0.000010 1.825869 1.482295 -14.627762 -0.000009 -7.370675 -0.000002 0.000001 0.000000 -0.000001 0.000008 0.000001 -0.000000 -0.000000 0.000001 0.000002 0.000004 -0.000001 0.000004 -0.000000 0.000000 0.000000 11.315678 0.000063 0.000016 -5.187710 -1.464360 13.494735 -0.000036 -0.000046 -38.200310 0.376739 -0.230178 30.457832 -0.000010 0.000000 -39.900848 8.276708 1.643366 6.253559 -0.000004 -15.261691 -0.000000 -0.800228 -0.492468 -19.417451 -0.000036 -7.540040 0.000001 0.000000 0.000000 -0.000001 -0.000037 -0.000063 0.000000 0.000000 -0.000000 0.000002 -0.000000 -0.000002 0.000001 -0.000000 -0.000000 -0.000001 
1.056305 -4.329163 85.720734 1.700141 -0.747850 -22.404547 -0.000041 2.080101 8.814235 -0.382055 -2.483319 11.150756 0.000014 0.000025 8.844142 -0.025755 -0.886952 4.400986 -0.000064 -0.000092 11.682255 2.443287 4.036653 15.461089 -0.000026 -0.000012 11.746698 0.922309 5.040721 7.797954 -0.000011 -0.000050 17.658279 6.533893 20.961965 11.004064 -0.000056 -0.000092 5.101531 0.808529 1.897384 -0.785857 -0.000051 -0.000060 5.101573 -1.975373 2.002736 -20.809927 -0.000066 -0.000061 11.655128 0.000000 0.000003 -0.000000 -2.625414 -0.000088 11.175171 13.985395 -92.013057 1.443063 -0.000075 -0.000065 10.434669 -53.436238 -40.290815 63.589485 -0.000053 -0.000080 29.628443 12.952642 0.259711 18.702349 -0.000013 -0.000044 22.857594 21.819120 -5.845286 -7.400358 -2.867310 -2.944336 3.959496 33.329646 -11.338763 61.629466 -0.000026 -0.000051 3.350420 -0.000006 -0.000001 0.000006 -0.000034 -0.000081 3.756543 0.000010 0.000001 -0.000010 -0.000020 -0.000067 3.147347 -0.000000 -0.000000 0.000001 -0.086758 -2.345278 10.030859 -11.737818 -15.865418 2.546074 -0.000028 -0.000060 4.061102 0.313672 -11.309139 1.589408 -0.000021 -0.000041 3.248852 -0.192688 -11.308795 1.615856 -0.000030 -0.000000 2.639698 0.000000 0.000001 0.000000 0.104080 -0.006786 9.502941 -6.276466 -14.696612 0.377555 -0.000031 -0.000079 4.568748 0.411489 -10.432173 0.565252 -0.000011 -0.000058 3.654991 0.000272 -10.431752 0.545296 -0.000045 0.000004 2.741269 -0.000001 0.000001 -0.000001 0.086725 2.267434 8.921694 1.880925 -15.453679 -0.171948 -0.000036 -0.000082 4.061108 -0.992014 -10.937932 -0.667949 -0.000030 -0.000080 3.655005 0.113189 -10.937743 -0.685455 -0.000016 -0.000016 2.741227 0.000002 0.000001 -0.000001 -0.173485 4.467242 7.976980 10.695085 -15.193623 -2.684934 -0.000002 -0.000075 3.350412 -1.804530 -10.745738 -2.113156 -0.000019 -0.000070 2.842812 0.194226 -10.745640 -2.112994 -0.000032 0.000017 2.639716 -0.000002 0.000001 -0.000001 -0.000025 -0.000027 -0.000029 0.000004 -0.000000 -0.000000 -0.000027 -0.000080 0.000025 0.000003 0.000000 -0.000001 2.625397 -0.000061 11.175258 -10.744966 92.275999 -0.717192 -0.000011 -0.000134 10.813637 36.820160 47.348514 39.148052 0.000001 -0.000057 28.724741 -6.555561 0.937752 38.056288 0.644348 0.328823 25.716194 -27.535079 2.352277 -16.467511 2.867256 -2.944275 3.959572 -33.319060 11.320066 61.570829 -0.000003 -0.000010 3.350404 0.011029 -0.011019 -0.056543 -0.000008 -0.000075 3.756542 0.011030 -0.011027 -0.006164 -0.000021 -0.000005 3.100020 0.000000 0.000001 0.000001 0.086750 -2.345263 10.030910 -6.104306 14.403498 -3.781140 0.000010 -0.000001 4.061108 0.388706 10.420576 -1.476730 0.000016 0.000023 3.248866 -0.112215 10.420423 -1.476905 0.000003 -0.000002 2.639709 0.000000 -0.000001 -0.000000 -0.104097 -0.006743 9.502937 -1.118255 13.628746 -3.081356 -0.000001 -0.000063 4.568757 0.444368 9.791854 -0.509757 -0.000042 -0.000050 3.655011 -0.067331 9.792112 -0.501794 -0.000031 0.000007 2.741267 -0.000000 0.000001 -0.000000 -0.086803 2.267456 8.921711 7.416394 15.321706 -0.503373 -0.000002 -0.000019 4.061122 -0.938892 10.811833 0.656967 -0.000009 0.000021 3.654984 0.051197 10.811846 0.646819 0.000006 0.000009 2.741259 -0.000001 0.000004 0.000001 0.173477 4.467189 7.976994 16.358995 15.702979 2.059882 -0.000025 0.000017 3.350382 -1.793137 10.993621 2.163797 -0.000018 -0.000022 2.842779 0.200462 10.993616 2.162581 0.000003 -0.000065 2.639722 0.000002 0.000003 0.000002 0.000001 -0.000008 -0.000000 0.000000 0.000000 0.000000 0.000003 0.000015 0.000010 -0.000002 -0.000001 0.000002 -11.289968 0.000006 -0.000004 -3.763484 8.921449 17.328296 -0.000065 0.000069 -38.200283 -1.019191 0.515631 26.720993 -0.000040 0.000031 -39.900852 -10.661331 -7.799473 6.252131 -0.000019 -15.261595 -0.000002 1.823742 1.483380 -14.617904 0.000006 -7.370729 0.000001 0.000000 -0.000000 -0.000001 0.000005 0.000006 0.000002 -0.000001 0.000000 0.000001 -0.000000 0.000001 -0.000003 -0.000000 -0.000000 0.000002 11.315672 0.000017 0.000031 -5.191286 -1.458479 13.522303 -0.000032 -0.000036 -38.200310 0.377060 -0.230323 30.444513 -0.000015 0.000011 -39.900848 8.275627 1.642509 6.248785 -0.000024 -15.261728 -0.000001 -0.801193 -0.490893 -19.407359 -0.000028 -7.540040 0.000000 0.000000 0.000000 -0.000001 -0.000028 -0.000062 0.000000 0.000000 -0.000000 0.000002 -0.000002 -0.000000 0.000004 -0.000000 0.000000 0.000000 
